<svg width="1001" height="170" viewBox="0 0 1001 170" fill="none" xmlns="http://www.w3.org/2000/svg">
<path d="M150.105 110.758C150.105 111.943 149.786 113.036 149.148 114.039C148.51 114.951 148.328 116.044 148.602 117.32C148.237 117.958 147.736 118.46 147.098 118.824C146.551 119.189 146.368 119.872 146.551 120.875C144.637 121.878 142.859 123.154 141.219 124.703C139.669 126.161 137.983 127.574 136.16 128.941C135.066 129.762 134.109 130.354 133.289 130.719C132.56 130.992 131.648 131.448 130.555 132.086L127.137 134.273C125.587 135.094 123.992 135.914 122.352 136.734C120.802 137.555 119.389 138.603 118.113 139.879C116.199 139.97 114.24 140.471 112.234 141.383C110.229 142.385 108.315 143.251 106.492 143.98C105.763 144.254 105.034 144.436 104.305 144.527C103.576 144.71 102.846 144.983 102.117 145.348L99.9297 146.305C98.6536 146.943 97.1497 147.581 95.418 148.219C93.6862 148.948 92.1367 149.312 90.7695 149.312C89.9492 149.677 89.2656 150.315 88.7188 151.227C85.7109 152.229 82.612 153.004 79.4219 153.551C76.2318 154.098 73.1328 154.964 70.125 156.148C69.1224 156.604 68.0742 157.197 66.9805 157.926C65.9779 158.746 64.8841 159.111 63.6992 159.02C63.4258 159.475 63.2435 160.022 63.1523 160.66C63.0612 161.298 62.9245 161.936 62.7422 162.574H62.332C61.9674 162.574 61.7852 162.392 61.7852 162.027C61.8763 161.663 61.7396 161.48 61.375 161.48C61.1016 161.48 60.9193 161.526 60.8281 161.617C59.6432 161.891 58.5039 162.118 57.4102 162.301C56.4076 162.483 55.2682 162.574 53.9922 162.574C53.263 162.574 52.0781 162.483 50.4375 162.301C48.888 162.118 47.7487 161.891 47.0195 161.617C46.4727 161.344 46.0169 160.842 45.6523 160.113C45.2878 159.384 44.9232 158.609 44.5586 157.789C44.2852 156.969 44.0117 156.103 43.7383 155.191C43.556 154.371 43.3737 153.688 43.1914 153.141C43.4648 152.138 43.9206 151.318 44.5586 150.68C45.1966 150.042 45.6979 149.221 46.0625 148.219C46.8828 148.128 47.7031 147.991 48.5234 147.809C49.3438 147.626 50.1641 147.581 50.9844 147.672C53.8099 146.852 56.6354 146.031 59.4609 145.211C62.3776 144.482 65.2487 143.707 68.0742 142.887C70.8997 142.066 73.6797 141.155 76.4141 140.152C79.1484 139.15 81.7917 137.919 84.3438 136.461H87.2148C88.8555 135.549 90.6784 134.775 92.6836 134.137C94.6888 133.499 96.3294 132.451 97.6055 130.992C100.613 130.354 103.758 129.488 107.039 128.395C110.32 127.301 113.055 125.569 115.242 123.199C116.609 123.017 117.794 122.698 118.797 122.242C119.799 121.695 120.757 121.148 121.668 120.602L124.402 118.824C125.314 118.186 126.362 117.685 127.547 117.32C128.276 116.591 128.96 115.816 129.598 114.996C130.236 114.176 131.01 113.492 131.922 112.945C131.648 111.487 130.919 110.393 129.734 109.664C128.549 108.935 127.501 108.069 126.59 107.066H123.582C121.212 105.608 118.66 104.514 115.926 103.785C113.283 102.965 110.639 102.099 107.996 101.188C107.814 101.096 107.586 101.051 107.312 101.051C106.674 101.051 106.264 101.279 106.082 101.734C105.991 102.19 105.626 102.372 104.988 102.281C104.168 101.734 103.302 101.415 102.391 101.324C101.479 101.142 100.522 101.051 99.5195 101.051C98.2435 101.051 96.9674 101.142 95.6914 101.324C94.5065 101.415 93.276 101.461 92 101.461C91.362 101.461 90.724 101.415 90.0859 101.324C89.4479 101.233 88.8099 101.005 88.1719 100.641H86.3945C84.4805 100.641 82.5664 100.732 80.6523 100.914C78.8294 101.005 77.0065 101.051 75.1836 101.051C74.181 101.051 73.224 101.051 72.3125 101.051C71.401 100.96 70.4896 100.823 69.5781 100.641C67.6641 101.552 65.6133 102.19 63.4258 102.555C61.2383 102.919 58.9596 103.193 56.5898 103.375C54.3112 103.557 52.0326 103.74 49.7539 103.922C47.4753 104.013 45.2878 104.241 43.1914 104.605C42.6445 104.514 42.0977 104.469 41.5508 104.469C41.0951 104.378 40.6393 104.332 40.1836 104.332C39.7279 104.332 39.2266 104.378 38.6797 104.469C38.224 104.469 37.7682 104.514 37.3125 104.605C36.1276 103.329 34.6693 102.418 32.9375 101.871C31.2969 101.233 29.6562 100.823 28.0156 100.641C26.7396 99.0911 25.7826 97.5417 25.1445 95.9922C24.5977 94.3516 24.2331 92.5286 24.0508 90.5234H24.5977C25.2357 90.5234 25.5091 90.2044 25.418 89.5664C25.418 88.9284 25.6458 88.3815 26.1016 87.9258C26.5573 87.3789 27.1497 87.0143 27.8789 86.832C28.6992 86.5586 29.474 86.2852 30.2031 86.0117C30.9323 85.7383 31.6159 85.4193 32.2539 85.0547C32.9831 84.599 33.5299 83.9154 33.8945 83.0039H35.6719C36.0365 83.0039 36.401 83.0495 36.7656 83.1406C37.2214 83.1406 37.5859 83.2773 37.8594 83.5508C38.224 83.1862 38.6797 82.8672 39.2266 82.5938C39.7734 82.3203 40.2747 82.0469 40.7305 81.7734C41.2773 81.5 41.7331 81.181 42.0977 80.8164C42.4622 80.4518 42.6901 79.9049 42.7812 79.1758C42.8724 79.4492 43.1003 79.5859 43.4648 79.5859C43.8294 79.5859 44.1484 79.4948 44.4219 79.3125C44.7865 79.1302 45.1966 79.0846 45.6523 79.1758C46.1081 77.8997 46.8828 77.2161 47.9766 77.125C49.0703 77.0339 50.0729 76.7148 50.9844 76.168C51.6224 75.8034 52.2148 75.3932 52.7617 74.9375C53.3086 74.3906 53.901 73.8893 54.5391 73.4336L62.7422 67.1445L75.3203 57.5742C79.513 54.3841 83.7969 51.4219 88.1719 48.6875C88.3542 48.1406 88.6276 47.7305 88.9922 47.457C89.3568 47.1836 89.7214 46.9102 90.0859 46.6367C90.4505 46.2721 90.724 45.9076 90.9062 45.543C91.1797 45.1784 91.2708 44.6315 91.1797 43.9023C92.4557 43.6289 93.4128 43.1276 94.0508 42.3984C94.7799 41.6693 95.418 40.8945 95.9648 40.0742C96.5117 39.1628 97.0586 38.2969 97.6055 37.4766C98.2435 36.5651 99.0638 35.8815 100.066 35.4258C99.9753 35.1523 99.9297 34.7422 99.9297 34.1953C99.9297 33.4661 99.9753 32.737 100.066 32.0078C100.249 31.2786 100.613 30.6406 101.16 30.0938C100.34 28.1797 98.9271 26.8125 96.9219 25.9922C94.9167 25.0807 93.0026 24.306 91.1797 23.668H90.7695C90.3138 23.668 90.0404 23.8958 89.9492 24.3516C89.9492 24.7161 89.7214 24.9896 89.2656 25.1719C87.8073 24.8073 86.1667 24.625 84.3438 24.625C82.5208 24.625 80.6979 24.7617 78.875 25.0352C77.1432 25.3086 75.3659 25.3542 73.543 25.1719C73.2695 25.5365 72.9505 25.901 72.5859 26.2656C72.3125 26.6302 71.9479 26.9492 71.4922 27.2227C69.5781 27.3138 67.6641 27.5872 65.75 28.043L60.0078 29.4102L56.8633 30.0938C56.4076 30.276 56.0885 30.5951 55.9062 31.0508C55.724 31.5065 55.5872 32.0078 55.4961 32.5547C54.9492 32.4635 54.5846 32.2357 54.4023 31.8711C54.3112 31.5065 53.9922 31.2331 53.4453 31.0508C51.349 32.3268 49.0703 33.375 46.6094 34.1953C44.2396 35.0156 42.0977 36.2917 40.1836 38.0234C39.5456 37.2943 38.6341 36.9297 37.4492 36.9297C36.4466 36.9297 35.3529 37.2487 34.168 37.8867C32.9831 38.5247 32.2539 39.3451 31.9805 40.3477C31.069 40.1654 30.3854 40.0742 29.9297 40.0742C28.9271 40.0742 28.0612 40.3477 27.332 40.8945C26.694 41.4414 26.056 42.0794 25.418 42.8086C24.7799 43.4466 24.0964 44.0846 23.3672 44.7227C22.638 45.3607 21.7266 45.7253 20.6328 45.8164C20.6328 46.2721 20.6328 46.7734 20.6328 47.3203C20.724 47.776 20.7695 48.2773 20.7695 48.8242C20.7695 52.9258 20.5417 57.0273 20.0859 61.1289C19.6302 65.1393 19.4023 69.1953 19.4023 73.2969C19.4023 74.2083 19.4479 75.1198 19.5391 76.0312C19.6302 76.8516 19.6758 77.763 19.6758 78.7656C19.6758 79.0391 19.4479 79.6315 18.9922 80.543C18.6276 81.4544 18.3542 82.138 18.1719 82.5938C18.5365 83.5964 18.6732 84.599 18.582 85.6016C18.582 86.6042 18.8099 87.5612 19.2656 88.4727C18.4453 89.2018 18.0352 90.2044 18.0352 91.4805C18.0352 92.0273 18.0352 92.5742 18.0352 93.1211C18.1263 93.668 18.1719 94.2148 18.1719 94.7617V96.4023C17.8984 98.2253 17.7161 100.094 17.625 102.008C17.5339 103.831 17.4883 105.654 17.4883 107.477C17.4883 108.297 17.4883 109.71 17.4883 111.715C17.5794 113.629 17.7161 115.816 17.8984 118.277C18.0807 120.647 18.3542 123.108 18.7188 125.66C19.0833 128.212 19.5391 130.582 20.0859 132.77C20.724 134.866 21.4987 136.598 22.4102 137.965C23.3216 139.332 24.4154 140.016 25.6914 140.016C25.9648 140.016 26.2839 139.97 26.6484 139.879C27.1042 139.788 27.332 139.56 27.332 139.195C27.332 138.831 27.2409 138.512 27.0586 138.238C26.9674 137.965 26.9219 137.646 26.9219 137.281L27.0586 137.008C27.7878 137.372 28.5625 137.6 29.3828 137.691C30.2943 137.783 31.2057 137.874 32.1172 137.965C33.0286 138.056 33.8945 138.193 34.7148 138.375C35.5352 138.648 36.2643 139.15 36.9023 139.879C36.5378 140.608 36.3555 141.383 36.3555 142.203C36.3555 143.297 36.6289 144.299 37.1758 145.211C37.7227 146.214 38.0872 147.216 38.2695 148.219C36.5378 148.766 34.9427 149.358 33.4844 149.996C32.1172 150.725 30.75 151.363 29.3828 151.91C28.0156 152.548 26.5573 153.095 25.0078 153.551C23.4583 154.098 21.681 154.462 19.6758 154.645C18.3997 153.824 17.306 153.095 16.3945 152.457C15.4831 151.819 14.2526 151.409 12.7031 151.227C10.3333 148.036 8.3737 144.436 6.82422 140.426C5.27474 136.507 4.04427 132.405 3.13281 128.121C2.3125 123.837 1.72005 119.553 1.35547 115.27C1.08203 110.895 0.945312 106.793 0.945312 102.965C0.945312 98.7721 1.08203 94.625 1.35547 90.5234C1.72005 86.3307 2.17578 82.138 2.72266 77.9453C2.90495 76.6693 3.08724 75.3932 3.26953 74.1172C3.45182 72.75 3.63411 71.4284 3.81641 70.1523C3.9987 69.6966 4.13542 69.1953 4.22656 68.6484C4.40885 68.0104 4.5 67.4635 4.5 67.0078C4.5 65.4583 4.45443 63.9089 4.36328 62.3594C4.27214 60.8099 4.22656 59.306 4.22656 57.8477C4.22656 55.569 4.36328 53.2448 4.63672 50.875C4.72786 50.4193 4.86458 49.8268 5.04688 49.0977C5.32031 48.3685 5.45703 47.7305 5.45703 47.1836C5.45703 46.4544 5.27474 45.9531 4.91016 45.6797C4.54557 45.4062 4.22656 44.9505 3.95312 44.3125C4.22656 43.401 4.45443 42.5352 4.63672 41.7148C4.81901 40.8034 4.91016 39.8919 4.91016 38.9805C4.91016 37.2487 4.59115 35.7448 3.95312 34.4688C4.40885 32.099 5.09245 29.7747 6.00391 27.4961C6.91536 25.2174 8.51042 23.4857 10.7891 22.3008C12.612 22.3919 14.4349 22.5742 16.2578 22.8477C18.1719 23.1211 19.8125 23.8958 21.1797 25.1719C21.8177 24.8073 22.5469 24.5794 23.3672 24.4883L25.9648 24.2148C26.8763 24.1237 27.6966 23.987 28.4258 23.8047C29.1549 23.5312 29.793 23.0299 30.3398 22.3008C32.1628 21.9362 34.1224 21.4349 36.2188 20.7969C38.3151 20.0677 40.138 19.2474 41.6875 18.3359H44.6953C45.3333 17.8802 46.0625 17.5612 46.8828 17.3789L49.4805 16.6953C50.3919 16.4219 51.2122 16.1484 51.9414 15.875C52.7617 15.6016 53.3997 15.1458 53.8555 14.5078H54.4023C56.4987 14.5078 58.5495 14.0521 60.5547 13.1406C62.5599 12.2292 64.5195 11.4089 66.4336 10.6797C66.8893 10.4974 67.5729 10.1784 68.4844 9.72266C69.487 9.26693 70.1706 9.03906 70.5352 9.03906C71.8112 8.85677 73.0872 8.76562 74.3633 8.76562C75.6393 8.67448 76.9154 8.49219 78.1914 8.21875C81.1081 7.76302 83.9792 7.26172 86.8047 6.71484C89.7214 6.07682 92.638 5.75781 95.5547 5.75781C96.5573 5.75781 97.4688 5.80339 98.2891 5.89453C99.2005 5.89453 100.158 5.9401 101.16 6.03125C101.251 6.39583 101.479 6.71484 101.844 6.98828C102.208 7.17057 102.527 7.35286 102.801 7.53516C103.165 7.71745 103.484 7.99089 103.758 8.35547C104.031 8.62891 104.122 9.03906 104.031 9.58594C104.214 9.76823 104.396 9.85938 104.578 9.85938C104.852 9.85938 105.079 9.72266 105.262 9.44922C105.535 9.17578 105.9 9.03906 106.355 9.03906H107.039C108.224 10.3151 109.363 11.5456 110.457 12.7305C111.642 13.8242 113.1 14.7357 114.832 15.4648C115.561 18.1992 116.427 20.888 117.43 23.5312C118.432 26.1745 118.934 29 118.934 32.0078C118.934 33.8307 118.66 35.6081 118.113 37.3398C116.837 37.9779 115.926 38.9805 115.379 40.3477C114.832 41.7148 114.331 43.0365 113.875 44.3125C111.323 45.5885 109.181 47.2747 107.449 49.3711C105.717 51.4674 103.94 53.5638 102.117 55.6602H99.9297C99.5651 55.6602 99.2917 55.7969 99.1094 56.0703L97.8789 57.4375C97.0586 58.1667 96.1471 58.8958 95.1445 59.625C94.2331 60.3542 93.5495 61.3112 93.0938 62.4961C90.2682 64.0456 87.5339 65.7773 84.8906 67.6914C82.3385 69.6055 79.8776 71.6107 77.5078 73.707C76.5052 74.5273 75.5026 75.4844 74.5 76.5781C73.4974 77.5807 72.4948 78.4466 71.4922 79.1758C70.9453 79.6315 70.3073 80.0417 69.5781 80.4062C68.9401 80.6797 68.3477 81.0443 67.8008 81.5C66.6159 82.4115 65.5221 83.3685 64.5195 84.3711C63.5169 85.2826 62.4688 86.1484 61.375 86.9688C65.4766 86.7865 69.6237 86.6953 73.8164 86.6953C78.0091 86.6042 82.1562 86.513 86.2578 86.4219C88.3542 86.4219 90.4049 86.3763 92.4102 86.2852C94.4154 86.1029 96.4661 86.0117 98.5625 86.0117C98.9271 86.0117 99.2461 86.1029 99.5195 86.2852C99.793 86.3763 100.112 86.4674 100.477 86.5586C102.026 86.832 103.393 87.151 104.578 87.5156C108.953 88.3359 113.328 89.0651 117.703 89.7031C122.078 90.3411 126.362 91.3893 130.555 92.8477C131.74 93.3034 132.605 93.8047 133.152 94.3516C133.79 94.8984 134.884 95.0352 136.434 94.7617C137.71 96.0378 139.077 97.0404 140.535 97.7695C142.085 98.4987 143.634 99.1367 145.184 99.6836C146.368 101.507 147.462 103.238 148.465 104.879C149.559 106.52 150.105 108.479 150.105 110.758Z" fill="white"/>
<path d="M244.031 47.0469V47.5938C243.393 47.776 243.074 48.2318 243.074 48.9609C242.072 49.4167 241.023 49.7812 239.93 50.0547C238.836 50.237 237.788 50.556 236.785 51.0117C235.783 50.9206 234.734 50.875 233.641 50.875C232.638 50.7839 231.635 50.7383 230.633 50.7383C227.898 50.7383 225.164 50.8294 222.43 51.0117C219.695 51.194 216.961 51.194 214.227 51.0117C212.951 51.7409 211.538 52.3333 209.988 52.7891C208.53 53.1536 207.117 53.3359 205.75 53.3359C204.656 53.3359 203.699 53.1992 202.879 52.9258C200.691 54.0195 198.276 54.931 195.633 55.6602C193.081 56.3893 190.483 57.1185 187.84 57.8477C185.197 58.4857 182.645 59.2604 180.184 60.1719C177.814 60.9922 175.717 62.1771 173.895 63.7266C173.712 65.0026 173.576 66.2786 173.484 67.5547C173.393 68.7396 173.348 69.9245 173.348 71.1094C173.348 72.3854 173.393 73.5703 173.484 74.6641C173.667 75.7578 173.986 76.8516 174.441 77.9453C174.897 78.1276 175.398 78.2643 175.945 78.3555C176.583 78.4466 177.13 78.4922 177.586 78.4922C178.042 78.4922 178.497 78.4466 178.953 78.3555C179.409 78.1732 179.728 77.8542 179.91 77.3984C181.277 77.2161 182.645 77.1706 184.012 77.2617C185.379 77.2617 186.746 77.2617 188.113 77.2617C189.48 77.2617 190.802 77.2161 192.078 77.125C193.445 77.0339 194.767 76.806 196.043 76.4414C197.501 76.0768 198.914 75.849 200.281 75.7578C201.74 75.6667 203.152 75.5755 204.52 75.4844C205.887 75.3932 207.299 75.2565 208.758 75.0742C210.216 74.8008 211.72 74.2995 213.27 73.5703C214.454 74.026 215.639 74.2539 216.824 74.2539C218.1 74.2539 219.331 74.3451 220.516 74.5273C221.154 74.9831 221.655 75.4844 222.02 76.0312C222.475 76.5781 222.703 77.2161 222.703 77.9453C222.703 79.2214 222.247 80.4974 221.336 81.7734C220.424 83.0495 219.695 84.2344 219.148 85.3281H217.645C215.457 85.3281 213.315 85.6471 211.219 86.2852C209.214 86.832 207.163 87.5156 205.066 88.3359C203.061 89.0651 201.01 89.7487 198.914 90.3867C196.909 90.9336 194.812 91.207 192.625 91.207C192.26 91.207 192.033 91.4349 191.941 91.8906C191.941 92.2552 191.85 92.5286 191.668 92.7109C191.212 92.6198 190.529 92.5742 189.617 92.5742C187.521 92.5742 185.516 92.8021 183.602 93.2578C181.688 93.7135 179.728 93.9414 177.723 93.9414C177.176 93.9414 176.629 93.9414 176.082 93.9414C175.535 93.8503 174.988 93.7591 174.441 93.668C173.986 94.3971 173.393 94.8984 172.664 95.1719C171.935 95.3542 171.251 95.7188 170.613 96.2656C170.34 97.0859 170.158 98.0885 170.066 99.2734C170.066 100.458 170.021 101.689 169.93 102.965C169.93 104.15 169.839 105.289 169.656 106.383C169.474 107.477 169.109 108.342 168.562 108.98C168.654 109.436 169.018 109.618 169.656 109.527C170.294 109.345 170.613 109.618 170.613 110.348C170.613 111.168 170.522 112.034 170.34 112.945C170.158 113.857 170.066 114.768 170.066 115.68C170.066 117.411 170.249 119.326 170.613 121.422C171.069 123.427 171.707 125.296 172.527 127.027C173.439 128.759 174.624 130.217 176.082 131.402C177.54 132.496 179.363 133.043 181.551 133.043C183.009 133.043 184.376 132.77 185.652 132.223C186.928 131.676 187.977 130.764 188.797 129.488L189.48 129.352C189.845 129.352 190.164 129.397 190.438 129.488C190.802 129.579 191.167 129.625 191.531 129.625C192.078 129.625 192.762 129.306 193.582 128.668C194.493 127.939 195.451 127.118 196.453 126.207C197.547 125.296 198.641 124.43 199.734 123.609C200.828 122.698 201.876 122.06 202.879 121.695C203.517 120.419 204.109 119.143 204.656 117.867C205.294 116.591 206.206 115.589 207.391 114.859V110.895C208.302 109.892 209.259 108.98 210.262 108.16C211.355 107.34 212.176 106.292 212.723 105.016C213.178 105.198 213.589 105.335 213.953 105.426C214.409 105.517 214.865 105.562 215.32 105.562C215.776 105.562 216.232 105.517 216.688 105.426C217.234 105.335 217.736 105.198 218.191 105.016C218.921 106.018 219.467 107.158 219.832 108.434C220.288 109.618 220.835 110.758 221.473 111.852C220.652 113.492 219.695 115.452 218.602 117.73C217.508 120.009 216.323 122.288 215.047 124.566C213.771 126.845 212.404 129.033 210.945 131.129C209.578 133.134 208.211 134.684 206.844 135.777C206.57 136.051 205.978 136.37 205.066 136.734C204.064 137.464 203.152 138.147 202.332 138.785C201.512 139.514 200.737 140.335 200.008 141.246C197.365 142.066 194.812 143.16 192.352 144.527C189.982 145.895 187.612 147.216 185.242 148.492C184.148 148.219 182.964 148.082 181.688 148.082C180.594 148.082 179.5 148.128 178.406 148.219C177.312 148.401 176.128 148.492 174.852 148.492C174.487 148.036 173.94 147.717 173.211 147.535C172.573 147.444 172.345 146.988 172.527 146.168C169.428 145.986 166.922 145.12 165.008 143.57C163.094 142.112 161.453 140.289 160.086 138.102C158.81 135.914 157.762 133.544 156.941 130.992C156.121 128.44 155.255 125.979 154.344 123.609V123.199C154.344 122.743 154.526 122.47 154.891 122.379C155.255 122.288 155.438 122.014 155.438 121.559C155.438 121.376 155.392 121.24 155.301 121.148C155.027 120.146 154.799 119.28 154.617 118.551C154.435 117.822 154.344 116.956 154.344 115.953C154.344 114.495 154.435 113.082 154.617 111.715C154.799 110.257 154.891 108.798 154.891 107.34C154.891 105.882 154.708 104.605 154.344 103.512C154.708 103.056 155.027 102.464 155.301 101.734C155.483 100.914 155.62 100.094 155.711 99.2734C155.802 98.4531 155.848 97.6328 155.848 96.8125C155.939 95.9922 156.076 95.263 156.258 94.625C155.893 93.6224 155.574 92.7565 155.301 92.0273C155.027 91.207 154.891 90.25 154.891 89.1562V88.1992C155.802 86.6497 156.577 85.0547 157.215 83.4141C157.853 81.7734 158.536 80.0872 159.266 78.3555V77.9453C159.266 75.3021 159.174 72.6589 158.992 70.0156C158.81 67.3724 158.719 64.7292 158.719 62.0859V59.4883C158.719 58.5768 158.764 57.7109 158.855 56.8906C159.585 56.526 160.132 56.0247 160.496 55.3867C160.861 54.7487 161.408 54.2474 162.137 53.8828H166.648L167.469 52.5156C167.742 52.0599 167.924 51.5586 168.016 51.0117C169.018 50.7383 169.975 50.3737 170.887 49.918C171.889 49.3711 172.801 48.8242 173.621 48.2773C174.897 47.5482 176.036 46.9102 177.039 46.3633C178.133 45.7253 179.181 45.224 180.184 44.8594C181.277 44.4036 182.417 44.0391 183.602 43.7656C184.786 43.4922 186.154 43.2643 187.703 43.082C188.432 43.082 188.888 42.9453 189.07 42.6719C189.344 42.3984 189.708 42.0794 190.164 41.7148C191.258 41.8971 192.352 42.0794 193.445 42.2617C194.539 42.3529 195.633 42.3984 196.727 42.3984C198.914 42.3984 200.965 41.9883 202.879 41.168C205.613 41.168 208.302 41.1224 210.945 41.0312C213.68 40.9401 216.414 40.8945 219.148 40.8945C221.518 40.8945 223.888 40.9857 226.258 41.168C228.628 41.3503 230.952 41.6693 233.23 42.125C234.051 41.8516 234.962 41.7148 235.965 41.7148C237.059 41.7148 238.152 41.8516 239.246 42.125C240.431 42.3073 241.57 42.3073 242.664 42.125C242.755 43.1276 242.983 43.9935 243.348 44.7227C243.803 45.3607 244.031 46.1354 244.031 47.0469Z" fill="white"/>
<path d="M327.43 44.1758C327.247 45.2695 326.974 46.2266 326.609 47.0469C326.336 47.776 326.29 48.7786 326.473 50.0547C325.561 50.1458 324.832 50.4648 324.285 51.0117C323.829 51.4674 323.419 52.0143 323.055 52.6523C322.781 53.2904 322.462 53.974 322.098 54.7031C321.824 55.3411 321.46 55.9336 321.004 56.4805C321.733 59.7617 322.143 63.0885 322.234 66.4609C322.326 69.8333 322.553 73.1602 322.918 76.4414C323.374 80.6341 324.057 84.7812 324.969 88.8828C325.971 92.8932 326.473 96.9948 326.473 101.188C326.473 102.464 326.427 103.648 326.336 104.742C326.336 105.836 326.336 106.975 326.336 108.16C326.336 108.889 326.336 109.664 326.336 110.484C326.427 111.214 326.473 111.943 326.473 112.672C326.473 115.315 326.108 117.958 325.379 120.602C324.741 123.245 324.24 125.888 323.875 128.531C322.781 129.534 321.824 130.628 321.004 131.812C320.275 132.997 319.5 134.091 318.68 135.094C317.859 136.096 316.902 136.962 315.809 137.691C314.715 138.512 313.348 139.059 311.707 139.332C311.434 140.243 310.887 140.927 310.066 141.383C309.337 141.839 308.699 142.477 308.152 143.297H307.879C305.6 143.297 303.641 142.978 302 142.34C300.359 141.702 298.81 140.973 297.352 140.152C295.984 139.332 294.572 138.466 293.113 137.555C291.655 136.643 289.969 135.914 288.055 135.367C285.503 133.271 283.178 130.992 281.082 128.531C278.986 125.979 276.616 123.701 273.973 121.695C273.335 119.872 272.469 118.368 271.375 117.184C270.372 115.999 269.37 114.632 268.367 113.082C267.911 112.444 267.547 111.852 267.273 111.305C267.091 110.758 266.818 110.12 266.453 109.391C266.18 108.661 265.724 108.16 265.086 107.887C264.539 107.613 264.038 107.294 263.582 106.93C262.853 104.104 261.805 101.507 260.438 99.1367C259.07 96.7669 257.475 94.4883 255.652 92.3008C255.105 93.3034 254.65 94.3971 254.285 95.582C254.012 96.6758 253.738 97.8151 253.465 99C253.191 100.094 252.827 101.233 252.371 102.418C252.007 103.512 251.505 104.514 250.867 105.426V105.836C250.867 106.292 251.049 106.565 251.414 106.656C251.779 106.747 251.961 107.021 251.961 107.477C251.961 107.568 251.915 107.659 251.824 107.75C251.824 107.841 251.824 107.932 251.824 108.023C251.368 108.388 251.004 108.844 250.73 109.391C250.548 109.938 250.092 110.257 249.363 110.348C249.454 110.803 249.5 111.259 249.5 111.715V112.945C249.5 115.589 249.181 118.232 248.543 120.875C247.996 123.518 247.723 126.207 247.723 128.941V130.719C247.723 131.357 247.768 131.949 247.859 132.496C248.042 133.043 248.315 133.59 248.68 134.137C249.044 134.684 249.227 135.185 249.227 135.641C249.227 136.279 248.953 136.871 248.406 137.418C249.044 137.874 249.773 138.375 250.594 138.922C251.414 139.469 252.143 140.061 252.781 140.699C253.51 141.428 254.103 142.158 254.559 142.887C255.014 143.707 255.242 144.573 255.242 145.484C255.242 147.034 254.741 148.128 253.738 148.766C252.736 149.404 251.505 149.905 250.047 150.27C248.68 150.634 247.221 150.953 245.672 151.227C244.214 151.591 242.983 152.184 241.98 153.004H241.57C240.477 153.004 239.656 152.685 239.109 152.047C238.562 151.409 237.742 151.09 236.648 151.09C234.917 148.264 233.732 145.074 233.094 141.52C232.456 138.056 232.137 134.729 232.137 131.539C232.137 127.62 232.501 123.701 233.23 119.781C233.868 115.862 234.689 111.988 235.691 108.16C236.603 104.332 237.605 100.549 238.699 96.8125C239.884 92.9844 240.978 89.1562 241.98 85.3281L242.117 84.918C242.117 84.4622 241.98 84.1432 241.707 83.9609C241.525 83.7786 241.434 83.5052 241.434 83.1406C241.434 82.9583 241.479 82.8672 241.57 82.8672C241.844 81.9557 242.117 81.0898 242.391 80.2695C242.755 79.4492 243.029 78.5378 243.211 77.5352C243.758 74.9831 244.122 72.3854 244.305 69.7422C244.578 67.0078 244.715 64.319 244.715 61.6758C244.806 59.0326 244.897 56.3893 244.988 53.7461C245.171 51.0117 245.49 48.3229 245.945 45.6797C246.674 44.9505 247.358 44.1758 247.996 43.3555C248.634 42.5352 249.454 41.806 250.457 41.168C252.28 41.2591 254.103 41.5326 255.926 41.9883C257.749 42.444 259.48 43.1732 261.121 44.1758C262.215 48.0951 262.944 52.0143 263.309 55.9336C263.764 59.8529 264.493 63.7721 265.496 67.6914V68.1016C265.496 68.5573 265.724 68.7852 266.18 68.7852C266.727 68.694 267.137 68.8307 267.41 69.1953C267.228 69.4688 267.091 69.7878 267 70.1523C267 70.5169 267 70.8815 267 71.2461V73.5703C267.182 74.2995 267.41 75.0742 267.684 75.8945C267.957 76.7148 268.549 77.2161 269.461 77.3984C269.917 80.3151 270.6 83.0039 271.512 85.4648C272.423 87.9258 273.471 90.2956 274.656 92.5742C275.841 94.8529 277.117 97.1315 278.484 99.4102C279.852 101.598 281.264 103.922 282.723 106.383C285.001 108.115 286.961 110.12 288.602 112.398C290.242 114.586 291.883 116.728 293.523 118.824C295.255 120.829 297.169 122.607 299.266 124.156C301.453 125.706 304.279 126.663 307.742 127.027C308.198 126.663 308.517 126.161 308.699 125.523L309.383 123.609C309.656 122.971 309.93 122.424 310.203 121.969C310.568 121.422 311.069 121.012 311.707 120.738C311.889 118.186 312.072 115.589 312.254 112.945C312.527 110.302 313.12 107.796 314.031 105.426C313.576 104.605 313.348 103.603 313.348 102.418C313.348 101.507 313.393 100.641 313.484 99.8203C313.667 99 313.758 98.1797 313.758 97.3594C313.758 95.6276 313.393 94.2148 312.664 93.1211C312.664 92.4831 312.71 91.8451 312.801 91.207C312.892 90.4779 313.165 89.7943 313.621 89.1562C312.892 87.3333 312.299 85.4193 311.844 83.4141C311.479 81.4089 311.297 79.3581 311.297 77.2617C311.297 76.0768 311.434 74.8464 311.707 73.5703C311.16 72.2031 310.796 70.6081 310.613 68.7852L310.066 63.1797C309.884 61.2656 309.611 59.4883 309.246 57.8477C308.882 56.207 308.198 54.8854 307.195 53.8828C307.742 53.0625 308.016 52.1055 308.016 51.0117C308.016 49.1888 307.742 47.457 307.195 45.8164C306.648 44.1758 306.375 42.444 306.375 40.6211C306.375 39.3451 306.648 38.069 307.195 36.793C309.201 36.8841 311.16 37.112 313.074 37.4766C315.079 37.75 317.039 37.8867 318.953 37.8867C319.5 38.6159 320.138 39.2083 320.867 39.6641C321.596 40.1198 322.371 40.5755 323.191 41.0312C324.012 41.3958 324.786 41.806 325.516 42.2617C326.336 42.7174 326.974 43.3555 327.43 44.1758Z" fill="white"/>
<path d="M554.109 14.918C553.927 15.3737 553.562 16.194 553.016 17.3789C552.469 18.5638 552.195 19.3385 552.195 19.7031C552.195 20.4323 552.15 21.3893 552.059 22.5742C552.059 23.668 552.423 24.3516 553.152 24.625C552.15 26.7214 551.512 28.8633 551.238 31.0508C551.056 33.1471 550.965 35.3346 550.965 37.6133C550.965 39.8008 550.919 42.0339 550.828 44.3125C550.737 46.5 550.372 48.6419 549.734 50.7383C550.099 51.2852 550.19 51.9688 550.008 52.7891C549.917 53.5182 550.145 54.1107 550.691 54.5664C550.236 55.2956 549.962 56.0247 549.871 56.7539C549.78 57.3919 549.734 58.0755 549.734 58.8047C549.734 60.263 549.871 61.6758 550.145 63.043C549.142 64.5013 548.641 66.1419 548.641 67.9648C548.732 69.6966 548.777 71.474 548.777 73.2969C548.777 74.8464 548.549 76.3503 548.094 77.8086C547.729 79.2669 547.547 80.7708 547.547 82.3203C547.547 82.776 547.592 83.1862 547.684 83.5508C547.775 83.9154 547.82 84.3255 547.82 84.7812C547.82 85.237 547.638 85.556 547.273 85.7383C547 85.8294 546.863 86.2396 546.863 86.9688C546.863 90.3411 546.635 93.6224 546.18 96.8125C545.724 99.9115 545.132 103.01 544.402 106.109C543.764 109.117 543.035 112.171 542.215 115.27C541.395 118.368 540.665 121.513 540.027 124.703C539.025 125.797 538.25 127.027 537.703 128.395C537.247 129.762 536.382 130.855 535.105 131.676C533.921 134.684 532.417 137.418 530.594 139.879C528.862 142.34 526.902 144.664 524.715 146.852C522.618 149.039 520.431 151.135 518.152 153.141C515.874 155.237 513.641 157.379 511.453 159.566C510.542 159.566 509.63 159.566 508.719 159.566C507.898 159.658 507.033 159.703 506.121 159.703C504.116 159.703 502.111 159.612 500.105 159.43C498.1 159.247 496.186 158.928 494.363 158.473C493.999 157.197 493.27 156.331 492.176 155.875C491.173 155.51 490.262 154.918 489.441 154.098C488.53 153.277 487.846 152.366 487.391 151.363C486.935 150.361 485.978 149.677 484.52 149.312C484.064 147.945 483.335 146.35 482.332 144.527C481.421 142.704 480.509 140.836 479.598 138.922C478.686 137.008 477.866 135.185 477.137 133.453C476.499 131.63 476.18 130.081 476.18 128.805C476.18 128.349 476.225 127.939 476.316 127.574C476.499 127.118 476.635 126.663 476.727 126.207C476.18 125.569 475.815 124.749 475.633 123.746C475.451 122.743 475.314 121.741 475.223 120.738C475.223 119.645 475.132 118.642 474.949 117.73C474.767 116.728 474.357 115.953 473.719 115.406C472.625 116.135 471.759 117.047 471.121 118.141C470.483 119.234 469.891 120.419 469.344 121.695C468.888 122.971 468.432 124.247 467.977 125.523C467.521 126.799 466.974 127.984 466.336 129.078C465.06 130.081 463.921 131.22 462.918 132.496C462.007 133.772 461.049 135.048 460.047 136.324C459.135 137.691 458.133 138.922 457.039 140.016C455.945 141.201 454.669 142.158 453.211 142.887C452.846 144.527 452.163 145.895 451.16 146.988C450.249 148.173 449.246 149.221 448.152 150.133C447.059 151.135 446.01 152.138 445.008 153.141C444.005 154.234 443.276 155.556 442.82 157.105C441.271 157.835 439.539 158.883 437.625 160.25C435.711 161.708 433.751 163.167 431.746 164.625C429.832 166.083 427.872 167.314 425.867 168.316C423.953 169.41 422.267 169.957 420.809 169.957C419.624 169.957 418.484 169.82 417.391 169.547C416.388 169.365 415.34 169.137 414.246 168.863C413.152 168.59 412.059 168.316 410.965 168.043C409.871 167.861 408.732 167.815 407.547 167.906C405.815 166.083 404.493 163.987 403.582 161.617C402.671 159.339 401.531 157.197 400.164 155.191C399.708 152.457 399.253 149.677 398.797 146.852C398.341 144.117 398.113 141.383 398.113 138.648C398.113 137.099 398.296 135.641 398.66 134.273C399.025 132.997 399.207 131.676 399.207 130.309C399.207 129.853 399.116 129.443 398.934 129.078C398.842 128.622 398.751 128.167 398.66 127.711C399.298 126.435 399.799 125.113 400.164 123.746C400.529 122.288 400.802 120.829 400.984 119.371C401.258 117.913 401.531 116.5 401.805 115.133C402.078 113.674 402.488 112.307 403.035 111.031C403.217 109.938 402.898 109.117 402.078 108.57C402.716 107.932 403.126 107.249 403.309 106.52C403.491 105.79 403.582 105.061 403.582 104.332C403.673 103.603 403.719 102.828 403.719 102.008C403.719 101.188 403.81 100.413 403.992 99.6836C404.083 99.319 404.311 98.7721 404.676 98.043L405.906 95.7188C406.362 94.8984 406.727 94.1693 407 93.5312C407.365 92.8021 407.547 92.2552 407.547 91.8906C407.547 91.2526 407.365 90.569 407 89.8398C407.365 88.0169 407.957 86.2396 408.777 84.5078C409.689 82.776 410.372 80.9987 410.828 79.1758C411.284 77.3529 411.557 75.7578 411.648 74.3906C411.74 72.9323 412.15 71.2461 412.879 69.332C412.97 69.1497 413.016 68.9219 413.016 68.6484C413.016 68.2839 412.879 68.056 412.605 67.9648C412.332 67.8737 412.104 67.6914 411.922 67.418C413.016 65.3216 413.836 63.0885 414.383 60.7188C415.021 58.2578 415.522 55.7513 415.887 53.1992C416.342 50.6471 416.753 48.1406 417.117 45.6797C417.482 43.1276 418.029 40.7122 418.758 38.4336C418.484 36.6107 418.257 34.7422 418.074 32.8281C417.892 30.8229 417.801 28.9089 417.801 27.0859C417.801 24.9896 417.983 22.8477 418.348 20.6602C418.803 18.4727 419.76 16.5586 421.219 14.918C421.948 14.918 422.723 14.8724 423.543 14.7812C424.454 14.6901 425.275 14.6445 426.004 14.6445C427.098 14.6445 428.283 14.918 429.559 15.4648C430.197 18.3815 431.017 21.2526 432.02 24.0781C433.022 26.9036 433.523 29.9115 433.523 33.1016C433.523 34.651 433.341 36.2005 432.977 37.75L432.02 42.2617C431.746 43.7201 431.518 45.224 431.336 46.7734C431.154 48.2318 431.199 49.6901 431.473 51.1484C430.47 52.5156 429.878 54.1107 429.695 55.9336C429.604 57.6654 429.559 59.306 429.559 60.8555C428.647 62.1315 427.964 63.4076 427.508 64.6836C427.052 65.9596 426.688 67.2812 426.414 68.6484C426.232 69.9245 426.049 71.2461 425.867 72.6133C425.685 73.9805 425.457 75.3477 425.184 76.7148C425.001 77.1706 424.682 77.7174 424.227 78.3555C423.862 78.9935 423.68 79.4492 423.68 79.7227C423.68 80.3607 423.862 80.9987 424.227 81.6367C424.044 81.9102 423.862 82.138 423.68 82.3203C423.497 82.4115 423.361 82.6393 423.27 83.0039C422.996 84.0065 422.768 85.1003 422.586 86.2852C422.495 87.3789 422.312 88.4271 422.039 89.4297C421.583 91.7083 420.945 93.9414 420.125 96.1289C419.396 98.3164 418.621 100.504 417.801 102.691C417.801 104.514 417.71 105.973 417.527 107.066C417.436 108.16 417.254 109.163 416.98 110.074C416.798 110.895 416.525 111.806 416.16 112.809C415.887 113.72 415.613 114.905 415.34 116.363C415.066 117.73 414.793 119.417 414.52 121.422C414.337 123.427 414.109 125.523 413.836 127.711C413.654 129.807 413.517 131.904 413.426 134C413.335 136.005 413.289 137.737 413.289 139.195C413.289 141.839 413.517 144.391 413.973 146.852C414.52 149.404 415.431 151.819 416.707 154.098H419.031C419.578 154.098 420.171 154.098 420.809 154.098C421.447 154.189 422.039 154.371 422.586 154.645C423.224 154.462 423.543 154.189 423.543 153.824V152.73C423.543 152.457 423.771 152.092 424.227 151.637L425.184 151.773C426.095 151.773 426.915 151.637 427.645 151.363C428.465 151.09 429.285 150.725 430.105 150.27C431.837 147.9 433.842 145.895 436.121 144.254C438.491 142.613 440.587 140.699 442.41 138.512C442.866 137.783 443.003 136.917 442.82 135.914C443.914 135.732 444.734 135.322 445.281 134.684C445.919 134.046 446.512 133.362 447.059 132.633C447.605 131.904 448.152 131.22 448.699 130.582C449.337 129.853 450.158 129.352 451.16 129.078C451.616 128.258 452.026 127.392 452.391 126.48C452.755 125.478 453.12 124.521 453.484 123.609C453.94 122.698 454.441 121.878 454.988 121.148C455.626 120.328 456.447 119.69 457.449 119.234C458.999 115.771 460.32 112.216 461.414 108.57C462.508 104.833 464.148 101.415 466.336 98.3164C466.336 97.1315 466.382 96.0378 466.473 95.0352C466.564 94.0326 466.518 92.9844 466.336 91.8906C468.615 88.7917 470.073 85.556 470.711 82.1836C471.349 78.8112 471.668 75.2565 471.668 71.5195C471.668 68.4206 472.671 66.2786 474.676 65.0938C476.772 63.9089 479.233 63.3164 482.059 63.3164H483.426C483.973 63.3164 484.474 63.362 484.93 63.4531C485.112 64.0911 485.431 64.5924 485.887 64.957C486.434 65.2305 486.98 65.5495 487.527 65.9141V66.7344C487.527 68.0104 487.345 69.1953 486.98 70.2891C486.707 71.2917 486.57 72.3854 486.57 73.5703C486.57 74.1172 486.661 74.8464 486.844 75.7578C487.755 78.401 488.439 80.8164 488.895 83.0039C489.441 85.1914 489.715 87.7435 489.715 90.6602C489.715 93.1211 489.578 95.6276 489.305 98.1797C489.122 100.641 488.849 103.102 488.484 105.562C489.031 106.565 489.305 107.613 489.305 108.707C489.305 109.436 489.214 110.211 489.031 111.031C488.94 111.76 488.895 112.49 488.895 113.219C488.895 114.768 489.122 116.318 489.578 117.867C490.125 119.326 490.672 120.784 491.219 122.242C491.857 123.701 492.404 125.159 492.859 126.617C493.315 128.076 493.497 129.534 493.406 130.992C494.956 132.906 496.323 134.866 497.508 136.871C498.784 138.967 500.333 140.79 502.156 142.34C502.885 142.522 503.478 142.613 503.934 142.613C504.48 142.613 504.936 142.522 505.301 142.34C505.665 142.249 505.984 142.112 506.258 141.93C506.622 141.839 506.987 141.747 507.352 141.656C507.716 141.656 508.263 141.702 508.992 141.793C510.633 140.608 512.137 139.241 513.504 137.691C514.871 136.233 516.147 134.729 517.332 133.18C518.608 131.63 519.884 130.035 521.16 128.395C522.436 126.754 523.758 125.204 525.125 123.746C527.768 117.184 529.91 110.621 531.551 104.059C533.191 97.4961 534.194 90.6602 534.559 83.5508C534.559 82.5482 534.786 82.0469 535.242 82.0469C535.698 82.0469 536.108 81.7279 536.473 81.0898V77.2617C536.473 74.3451 536.609 71.4284 536.883 68.5117C537.247 65.5951 537.931 62.724 538.934 59.8984C538.66 58.8047 538.523 57.7109 538.523 56.6172C538.523 54.2474 538.706 51.9688 539.07 49.7812C539.526 47.5026 539.754 45.224 539.754 42.9453C539.754 41.7604 539.617 40.5755 539.344 39.3906C539.161 38.1146 538.706 36.9753 537.977 35.9727L537.84 35.1523C537.84 34.6055 538.022 34.1497 538.387 33.7852C538.842 33.4206 539.161 33.0104 539.344 32.5547C538.888 31.3698 538.706 30.1393 538.797 28.8633C538.979 27.5872 539.07 26.3112 539.07 25.0352C539.07 24.306 538.979 23.5312 538.797 22.7109C538.615 21.8906 538.159 21.2526 537.43 20.7969C538.25 19.8854 538.842 18.7005 539.207 17.2422C539.572 15.7839 539.799 14.2344 539.891 12.5938C540.073 10.9531 540.164 9.35807 540.164 7.80859C540.164 6.16797 540.255 4.80078 540.438 3.70703C541.258 2.79557 542.169 2.02083 543.172 1.38281C544.266 0.653646 545.451 0.289062 546.727 0.289062C548.367 0.289062 549.552 0.88151 550.281 2.06641C551.01 3.16016 551.557 4.52734 551.922 6.16797C552.286 7.71745 552.56 9.3125 552.742 10.9531C553.016 12.5938 553.471 13.9154 554.109 14.918Z" fill="white"/>
<path d="M648.035 47.0469V47.5938C647.397 47.776 647.078 48.2318 647.078 48.9609C646.076 49.4167 645.027 49.7812 643.934 50.0547C642.84 50.237 641.792 50.556 640.789 51.0117C639.786 50.9206 638.738 50.875 637.645 50.875C636.642 50.7839 635.639 50.7383 634.637 50.7383C631.902 50.7383 629.168 50.8294 626.434 51.0117C623.699 51.194 620.965 51.194 618.23 51.0117C616.954 51.7409 615.542 52.3333 613.992 52.7891C612.534 53.1536 611.121 53.3359 609.754 53.3359C608.66 53.3359 607.703 53.1992 606.883 52.9258C604.695 54.0195 602.28 54.931 599.637 55.6602C597.085 56.3893 594.487 57.1185 591.844 57.8477C589.201 58.4857 586.648 59.2604 584.188 60.1719C581.818 60.9922 579.721 62.1771 577.898 63.7266C577.716 65.0026 577.579 66.2786 577.488 67.5547C577.397 68.7396 577.352 69.9245 577.352 71.1094C577.352 72.3854 577.397 73.5703 577.488 74.6641C577.671 75.7578 577.99 76.8516 578.445 77.9453C578.901 78.1276 579.402 78.2643 579.949 78.3555C580.587 78.4466 581.134 78.4922 581.59 78.4922C582.046 78.4922 582.501 78.4466 582.957 78.3555C583.413 78.1732 583.732 77.8542 583.914 77.3984C585.281 77.2161 586.648 77.1706 588.016 77.2617C589.383 77.2617 590.75 77.2617 592.117 77.2617C593.484 77.2617 594.806 77.2161 596.082 77.125C597.449 77.0339 598.771 76.806 600.047 76.4414C601.505 76.0768 602.918 75.849 604.285 75.7578C605.743 75.6667 607.156 75.5755 608.523 75.4844C609.891 75.3932 611.303 75.2565 612.762 75.0742C614.22 74.8008 615.724 74.2995 617.273 73.5703C618.458 74.026 619.643 74.2539 620.828 74.2539C622.104 74.2539 623.335 74.3451 624.52 74.5273C625.158 74.9831 625.659 75.4844 626.023 76.0312C626.479 76.5781 626.707 77.2161 626.707 77.9453C626.707 79.2214 626.251 80.4974 625.34 81.7734C624.428 83.0495 623.699 84.2344 623.152 85.3281H621.648C619.461 85.3281 617.319 85.6471 615.223 86.2852C613.217 86.832 611.167 87.5156 609.07 88.3359C607.065 89.0651 605.014 89.7487 602.918 90.3867C600.913 90.9336 598.816 91.207 596.629 91.207C596.264 91.207 596.036 91.4349 595.945 91.8906C595.945 92.2552 595.854 92.5286 595.672 92.7109C595.216 92.6198 594.533 92.5742 593.621 92.5742C591.525 92.5742 589.52 92.8021 587.605 93.2578C585.691 93.7135 583.732 93.9414 581.727 93.9414C581.18 93.9414 580.633 93.9414 580.086 93.9414C579.539 93.8503 578.992 93.7591 578.445 93.668C577.99 94.3971 577.397 94.8984 576.668 95.1719C575.939 95.3542 575.255 95.7188 574.617 96.2656C574.344 97.0859 574.161 98.0885 574.07 99.2734C574.07 100.458 574.025 101.689 573.934 102.965C573.934 104.15 573.842 105.289 573.66 106.383C573.478 107.477 573.113 108.342 572.566 108.98C572.658 109.436 573.022 109.618 573.66 109.527C574.298 109.345 574.617 109.618 574.617 110.348C574.617 111.168 574.526 112.034 574.344 112.945C574.161 113.857 574.07 114.768 574.07 115.68C574.07 117.411 574.253 119.326 574.617 121.422C575.073 123.427 575.711 125.296 576.531 127.027C577.443 128.759 578.628 130.217 580.086 131.402C581.544 132.496 583.367 133.043 585.555 133.043C587.013 133.043 588.38 132.77 589.656 132.223C590.932 131.676 591.98 130.764 592.801 129.488L593.484 129.352C593.849 129.352 594.168 129.397 594.441 129.488C594.806 129.579 595.171 129.625 595.535 129.625C596.082 129.625 596.766 129.306 597.586 128.668C598.497 127.939 599.454 127.118 600.457 126.207C601.551 125.296 602.645 124.43 603.738 123.609C604.832 122.698 605.88 122.06 606.883 121.695C607.521 120.419 608.113 119.143 608.66 117.867C609.298 116.591 610.21 115.589 611.395 114.859V110.895C612.306 109.892 613.263 108.98 614.266 108.16C615.359 107.34 616.18 106.292 616.727 105.016C617.182 105.198 617.592 105.335 617.957 105.426C618.413 105.517 618.868 105.562 619.324 105.562C619.78 105.562 620.236 105.517 620.691 105.426C621.238 105.335 621.74 105.198 622.195 105.016C622.924 106.018 623.471 107.158 623.836 108.434C624.292 109.618 624.839 110.758 625.477 111.852C624.656 113.492 623.699 115.452 622.605 117.73C621.512 120.009 620.327 122.288 619.051 124.566C617.775 126.845 616.408 129.033 614.949 131.129C613.582 133.134 612.215 134.684 610.848 135.777C610.574 136.051 609.982 136.37 609.07 136.734C608.068 137.464 607.156 138.147 606.336 138.785C605.516 139.514 604.741 140.335 604.012 141.246C601.368 142.066 598.816 143.16 596.355 144.527C593.986 145.895 591.616 147.216 589.246 148.492C588.152 148.219 586.967 148.082 585.691 148.082C584.598 148.082 583.504 148.128 582.41 148.219C581.316 148.401 580.132 148.492 578.855 148.492C578.491 148.036 577.944 147.717 577.215 147.535C576.577 147.444 576.349 146.988 576.531 146.168C573.432 145.986 570.926 145.12 569.012 143.57C567.098 142.112 565.457 140.289 564.09 138.102C562.814 135.914 561.766 133.544 560.945 130.992C560.125 128.44 559.259 125.979 558.348 123.609V123.199C558.348 122.743 558.53 122.47 558.895 122.379C559.259 122.288 559.441 122.014 559.441 121.559C559.441 121.376 559.396 121.24 559.305 121.148C559.031 120.146 558.803 119.28 558.621 118.551C558.439 117.822 558.348 116.956 558.348 115.953C558.348 114.495 558.439 113.082 558.621 111.715C558.803 110.257 558.895 108.798 558.895 107.34C558.895 105.882 558.712 104.605 558.348 103.512C558.712 103.056 559.031 102.464 559.305 101.734C559.487 100.914 559.624 100.094 559.715 99.2734C559.806 98.4531 559.852 97.6328 559.852 96.8125C559.943 95.9922 560.079 95.263 560.262 94.625C559.897 93.6224 559.578 92.7565 559.305 92.0273C559.031 91.207 558.895 90.25 558.895 89.1562V88.1992C559.806 86.6497 560.581 85.0547 561.219 83.4141C561.857 81.7734 562.54 80.0872 563.27 78.3555V77.9453C563.27 75.3021 563.178 72.6589 562.996 70.0156C562.814 67.3724 562.723 64.7292 562.723 62.0859V59.4883C562.723 58.5768 562.768 57.7109 562.859 56.8906C563.589 56.526 564.135 56.0247 564.5 55.3867C564.865 54.7487 565.411 54.2474 566.141 53.8828H570.652L571.473 52.5156C571.746 52.0599 571.928 51.5586 572.02 51.0117C573.022 50.7383 573.979 50.3737 574.891 49.918C575.893 49.3711 576.805 48.8242 577.625 48.2773C578.901 47.5482 580.04 46.9102 581.043 46.3633C582.137 45.7253 583.185 45.224 584.188 44.8594C585.281 44.4036 586.421 44.0391 587.605 43.7656C588.79 43.4922 590.158 43.2643 591.707 43.082C592.436 43.082 592.892 42.9453 593.074 42.6719C593.348 42.3984 593.712 42.0794 594.168 41.7148C595.262 41.8971 596.355 42.0794 597.449 42.2617C598.543 42.3529 599.637 42.3984 600.73 42.3984C602.918 42.3984 604.969 41.9883 606.883 41.168C609.617 41.168 612.306 41.1224 614.949 41.0312C617.684 40.9401 620.418 40.8945 623.152 40.8945C625.522 40.8945 627.892 40.9857 630.262 41.168C632.632 41.3503 634.956 41.6693 637.234 42.125C638.055 41.8516 638.966 41.7148 639.969 41.7148C641.062 41.7148 642.156 41.8516 643.25 42.125C644.435 42.3073 645.574 42.3073 646.668 42.125C646.759 43.1276 646.987 43.9935 647.352 44.7227C647.807 45.3607 648.035 46.1354 648.035 47.0469Z" fill="white"/>
<path d="M744.012 37.6133C744.012 38.4336 743.829 39.2083 743.465 39.9375L742.508 41.9883C742.234 42.6263 741.961 43.3099 741.688 44.0391C741.414 44.7682 741.323 45.6341 741.414 46.6367C740.138 48.0951 738.862 49.5078 737.586 50.875C736.31 52.2422 735.171 53.7917 734.168 55.5234C733.165 55.4323 732.391 55.6602 731.844 56.207C731.388 56.7539 731.023 57.4831 730.75 58.3945C728.836 59.0326 727.15 60.0352 725.691 61.4023C724.233 62.6784 722.957 64.0911 721.863 65.6406C717.033 67.6458 712.521 70.1068 708.328 73.0234C704.135 75.9401 700.307 79.3581 696.844 83.2773C698.484 83.2773 700.079 83.4596 701.629 83.8242C703.27 84.1888 704.865 84.599 706.414 85.0547C708.055 85.4193 709.65 85.7839 711.199 86.1484C712.749 86.4219 714.344 86.4674 715.984 86.2852C717.169 87.3789 718.491 88.2904 719.949 89.0195C721.499 89.7487 723.003 90.4323 724.461 91.0703C726.01 91.7083 727.469 92.4375 728.836 93.2578C730.294 94.0781 731.57 95.0807 732.664 96.2656C732.664 96.4479 732.618 96.6302 732.527 96.8125C732.527 96.9036 732.527 97.0404 732.527 97.2227C732.527 97.9518 732.71 98.681 733.074 99.4102C733.439 100.048 733.621 100.732 733.621 101.461C733.165 102.19 732.755 102.965 732.391 103.785C732.026 104.605 731.57 105.335 731.023 105.973C730.568 106.611 730.021 107.158 729.383 107.613C728.745 108.069 727.879 108.342 726.785 108.434C726.329 109.983 725.6 111.214 724.598 112.125C723.595 112.945 722.456 113.72 721.18 114.449C719.995 115.087 718.81 115.771 717.625 116.5C716.44 117.138 715.438 118.004 714.617 119.098C711.883 119.736 709.194 120.647 706.551 121.832C703.999 122.926 701.72 124.521 699.715 126.617C698.348 126.799 696.935 127.027 695.477 127.301C694.109 127.483 692.742 127.574 691.375 127.574C689.461 127.574 687.911 127.21 686.727 126.48C685.542 125.66 684.858 124.202 684.676 122.105C684.949 121.467 685.359 120.921 685.906 120.465L687.684 119.098C688.322 118.642 688.868 118.186 689.324 117.73C689.871 117.184 690.281 116.546 690.555 115.816C690.737 115.816 690.965 115.862 691.238 115.953C691.512 115.953 691.785 115.953 692.059 115.953C693.152 115.953 694.018 115.725 694.656 115.27C695.294 114.814 695.887 114.358 696.434 113.902C697.072 113.447 697.755 113.036 698.484 112.672C699.214 112.307 700.171 112.171 701.355 112.262C701.993 111.077 702.951 110.211 704.227 109.664C705.503 109.026 706.824 108.479 708.191 108.023C709.559 107.477 710.835 106.884 712.02 106.246C713.296 105.517 714.161 104.469 714.617 103.102C714.161 102.372 713.569 101.826 712.84 101.461C712.111 101.005 711.29 100.641 710.379 100.367L707.781 99.5469C706.961 99.2734 706.232 98.9544 705.594 98.5898C704.591 98.8633 703.634 99 702.723 99C700.809 99 698.94 98.8177 697.117 98.4531C695.294 98.0885 693.426 97.9062 691.512 97.9062C689.78 97.9062 688.276 98.1341 687 98.5898C686.544 98.4987 686.043 98.362 685.496 98.1797C685.04 97.9974 684.585 97.8151 684.129 97.6328C682.033 98.4531 679.845 98.8633 677.566 98.8633H668.68C667.951 98.8633 667.221 98.9544 666.492 99.1367C665.49 100.96 664.988 102.919 664.988 105.016C664.988 106.565 665.216 108.069 665.672 109.527C666.128 110.895 666.583 112.353 667.039 113.902C668.862 115.543 670.548 117.503 672.098 119.781C673.647 121.969 674.422 124.384 674.422 127.027C674.422 127.665 674.376 128.167 674.285 128.531C673.374 127.893 672.189 127.574 670.73 127.574C669.454 127.574 668.224 127.757 667.039 128.121C665.945 128.486 664.76 128.759 663.484 128.941C662.482 128.486 661.434 128.03 660.34 127.574C659.246 127.027 658.198 126.389 657.195 125.66C656.466 124.111 655.737 122.652 655.008 121.285C654.279 119.827 653.367 118.46 652.273 117.184V116.637C652.273 113.447 652 110.302 651.453 107.203C650.997 104.104 650.77 100.96 650.77 97.7695C650.77 96.3112 650.815 94.8529 650.906 93.3945C651.089 91.8451 651.544 90.4323 652.273 89.1562C652 86.9688 651.863 84.6901 651.863 82.3203C651.863 77.5807 652.137 72.8411 652.684 68.1016C653.23 63.362 653.504 58.5312 653.504 53.6094C653.504 52.6068 653.458 51.6042 653.367 50.6016C653.367 49.599 653.322 48.5964 653.23 47.5938H652.684C651.499 47.5938 650.359 47.776 649.266 48.1406C648.172 48.4141 647.078 48.7331 645.984 49.0977C644.891 49.4622 643.751 49.8268 642.566 50.1914C641.382 50.4648 640.197 50.6016 639.012 50.6016C638.283 50.9661 637.69 51.3307 637.234 51.6953C636.779 52.0599 636.323 52.3789 635.867 52.6523C635.411 52.9258 634.91 53.1536 634.363 53.3359C633.725 53.5182 632.996 53.5638 632.176 53.4727C631.173 54.1107 630.398 54.612 629.852 54.9766C629.214 55.25 628.348 55.569 627.254 55.9336C626.707 56.1159 626.251 56.3893 625.887 56.7539L624.793 57.7109C624.428 57.9844 624.018 58.2578 623.562 58.5312C623.107 58.8047 622.514 58.9414 621.785 58.9414C621.147 58.9414 620.691 58.8958 620.418 58.8047C619.871 58.349 619.415 57.8021 619.051 57.1641C618.595 56.526 618.185 55.9336 617.82 55.3867C617.365 54.7487 616.909 54.2018 616.453 53.7461C615.906 53.1992 615.268 52.7891 614.539 52.5156C614.904 52.0599 615.086 51.6953 615.086 51.4219C614.995 51.0573 614.949 50.6471 614.949 50.1914C614.949 49.918 614.995 49.7357 615.086 49.6445C615.542 48.0039 616.362 46.7279 617.547 45.8164C618.732 44.8138 620.053 44.0391 621.512 43.4922C622.97 42.8542 624.474 42.3073 626.023 41.8516C627.482 41.3958 628.849 40.849 630.125 40.2109C633.68 40.3021 636.915 39.9831 639.832 39.2539C642.749 38.4336 645.757 37.2943 648.855 35.8359C649.402 36.1094 649.949 36.2461 650.496 36.2461C650.952 36.2461 651.408 36.2005 651.863 36.1094L653.23 35.8359C654.324 34.9245 655.509 34.332 656.785 34.0586C658.061 33.7852 659.337 33.5573 660.613 33.375C661.889 33.1927 663.12 33.0104 664.305 32.8281C665.49 32.5547 666.538 32.0534 667.449 31.3242H667.996C670.184 31.3242 672.371 30.9596 674.559 30.2305C676.837 29.5013 679.025 29.2279 681.121 29.4102C682.944 28.4076 684.63 27.7695 686.18 27.4961C687.729 27.2227 689.507 27.0859 691.512 27.0859C691.967 27.0859 692.514 26.9036 693.152 26.5391C693.79 26.0833 694.565 25.8555 695.477 25.8555C695.659 25.8555 695.796 25.901 695.887 25.9922C696.069 25.9922 696.251 25.9922 696.434 25.9922C697.254 25.9922 697.801 25.7188 698.074 25.1719C698.439 24.625 699.305 24.3516 700.672 24.3516C701.31 24.3516 701.902 24.3971 702.449 24.4883C702.996 24.4883 703.543 24.4883 704.09 24.4883C704.728 24.4883 705.138 24.2604 705.32 23.8047C705.503 23.2578 705.913 23.0299 706.551 23.1211C706.824 23.4857 707.28 23.668 707.918 23.668C708.556 23.5768 709.057 23.5312 709.422 23.5312C710.06 23.5312 710.424 23.7135 710.516 24.0781C711.974 23.1667 713.569 22.5742 715.301 22.3008C717.124 22.0273 718.855 21.8906 720.496 21.8906C721.134 21.8906 721.772 21.9362 722.41 22.0273C723.048 22.0273 723.732 22.0729 724.461 22.1641C725.281 21.6172 726.238 21.3438 727.332 21.3438C727.97 21.3438 728.973 21.6172 730.34 22.1641C731.798 22.7109 733.302 23.349 734.852 24.0781C736.401 24.8073 737.814 25.582 739.09 26.4023C740.366 27.2227 741.141 27.9062 741.414 28.4531C741.596 28.6354 741.688 29.0456 741.688 29.6836C741.779 30.3216 741.915 30.8685 742.098 31.3242C742.553 32.418 742.964 33.4661 743.328 34.4688C743.784 35.3802 744.012 36.4284 744.012 37.6133ZM728.836 39.1172C728.836 38.9349 728.79 38.7526 728.699 38.5703C728.699 38.2969 728.699 38.069 728.699 37.8867C728.243 37.3398 727.605 36.9297 726.785 36.6562C726.056 36.3828 725.236 36.1549 724.324 35.9727C723.504 35.7904 722.638 35.6536 721.727 35.5625C720.906 35.3802 720.177 35.1523 719.539 34.8789C717.625 35.5169 715.529 35.8359 713.25 35.8359C711.154 35.8359 709.285 35.5169 707.645 34.8789C706.824 35.6992 705.776 36.3372 704.5 36.793C703.224 37.2487 701.857 37.6133 700.398 37.8867C699.031 38.069 697.618 38.2057 696.16 38.2969C694.793 38.2969 693.562 38.2969 692.469 38.2969C692.104 38.2969 691.466 38.5703 690.555 39.1172C689.643 39.6641 688.823 39.9375 688.094 39.9375C687.547 39.9375 687.046 39.7096 686.59 39.2539C685.77 39.8919 684.63 40.4388 683.172 40.8945C681.714 41.3503 680.21 41.7604 678.66 42.125C677.111 42.3984 675.516 42.7174 673.875 43.082C672.326 43.4466 671.004 43.8112 669.91 44.1758C668.816 46.5456 668.224 49.1432 668.133 51.9688C668.042 54.7031 667.996 57.3919 667.996 60.0352C667.996 61.5846 667.905 63.0885 667.723 64.5469C667.54 66.0052 667.449 67.5091 667.449 69.0586C667.449 69.7878 667.495 70.5625 667.586 71.3828C667.677 72.112 667.951 72.8411 668.406 73.5703C667.677 74.1172 667.176 74.8464 666.902 75.7578C666.72 76.5781 666.629 77.3984 666.629 78.2188C666.629 79.2214 666.72 80.1328 666.902 80.9531C667.085 81.7734 667.267 82.5482 667.449 83.2773C670.366 83.0039 673.009 82.457 675.379 81.6367C677.84 80.8164 680.118 79.8138 682.215 78.6289C684.402 77.444 686.499 76.0768 688.504 74.5273C690.509 72.9779 692.605 71.3372 694.793 69.6055C695.704 69.4232 696.434 69.1497 696.98 68.7852C697.618 68.4206 698.393 68.2383 699.305 68.2383C699.669 66.9622 700.353 66.0964 701.355 65.6406C702.358 65.0938 703.133 64.319 703.68 63.3164C704.773 63.043 705.685 62.6784 706.414 62.2227C707.234 61.6758 708.009 61.1745 708.738 60.7188C709.467 60.1719 710.242 59.6706 711.062 59.2148C711.974 58.7591 712.977 58.4857 714.07 58.3945C715.62 56.5716 717.215 54.7487 718.855 52.9258C720.587 51.1029 722.592 49.6445 724.871 48.5508C725.236 47.6393 725.646 46.8646 726.102 46.2266C726.557 45.4974 726.967 44.8138 727.332 44.1758C727.788 43.4466 728.152 42.7174 728.426 41.9883C728.699 41.168 728.836 40.2109 728.836 39.1172Z" fill="white"/>
<path d="M832.332 47.0469V47.5938C831.694 47.776 831.375 48.2318 831.375 48.9609C830.372 49.4167 829.324 49.7812 828.23 50.0547C827.137 50.237 826.089 50.556 825.086 51.0117C824.083 50.9206 823.035 50.875 821.941 50.875C820.939 50.7839 819.936 50.7383 818.934 50.7383C816.199 50.7383 813.465 50.8294 810.73 51.0117C807.996 51.194 805.262 51.194 802.527 51.0117C801.251 51.7409 799.839 52.3333 798.289 52.7891C796.831 53.1536 795.418 53.3359 794.051 53.3359C792.957 53.3359 792 53.1992 791.18 52.9258C788.992 54.0195 786.577 54.931 783.934 55.6602C781.382 56.3893 778.784 57.1185 776.141 57.8477C773.497 58.4857 770.945 59.2604 768.484 60.1719C766.115 60.9922 764.018 62.1771 762.195 63.7266C762.013 65.0026 761.876 66.2786 761.785 67.5547C761.694 68.7396 761.648 69.9245 761.648 71.1094C761.648 72.3854 761.694 73.5703 761.785 74.6641C761.967 75.7578 762.286 76.8516 762.742 77.9453C763.198 78.1276 763.699 78.2643 764.246 78.3555C764.884 78.4466 765.431 78.4922 765.887 78.4922C766.342 78.4922 766.798 78.4466 767.254 78.3555C767.71 78.1732 768.029 77.8542 768.211 77.3984C769.578 77.2161 770.945 77.1706 772.312 77.2617C773.68 77.2617 775.047 77.2617 776.414 77.2617C777.781 77.2617 779.103 77.2161 780.379 77.125C781.746 77.0339 783.068 76.806 784.344 76.4414C785.802 76.0768 787.215 75.849 788.582 75.7578C790.04 75.6667 791.453 75.5755 792.82 75.4844C794.188 75.3932 795.6 75.2565 797.059 75.0742C798.517 74.8008 800.021 74.2995 801.57 73.5703C802.755 74.026 803.94 74.2539 805.125 74.2539C806.401 74.2539 807.632 74.3451 808.816 74.5273C809.454 74.9831 809.956 75.4844 810.32 76.0312C810.776 76.5781 811.004 77.2161 811.004 77.9453C811.004 79.2214 810.548 80.4974 809.637 81.7734C808.725 83.0495 807.996 84.2344 807.449 85.3281H805.945C803.758 85.3281 801.616 85.6471 799.52 86.2852C797.514 86.832 795.464 87.5156 793.367 88.3359C791.362 89.0651 789.311 89.7487 787.215 90.3867C785.21 90.9336 783.113 91.207 780.926 91.207C780.561 91.207 780.333 91.4349 780.242 91.8906C780.242 92.2552 780.151 92.5286 779.969 92.7109C779.513 92.6198 778.829 92.5742 777.918 92.5742C775.822 92.5742 773.816 92.8021 771.902 93.2578C769.988 93.7135 768.029 93.9414 766.023 93.9414C765.477 93.9414 764.93 93.9414 764.383 93.9414C763.836 93.8503 763.289 93.7591 762.742 93.668C762.286 94.3971 761.694 94.8984 760.965 95.1719C760.236 95.3542 759.552 95.7188 758.914 96.2656C758.641 97.0859 758.458 98.0885 758.367 99.2734C758.367 100.458 758.322 101.689 758.23 102.965C758.23 104.15 758.139 105.289 757.957 106.383C757.775 107.477 757.41 108.342 756.863 108.98C756.954 109.436 757.319 109.618 757.957 109.527C758.595 109.345 758.914 109.618 758.914 110.348C758.914 111.168 758.823 112.034 758.641 112.945C758.458 113.857 758.367 114.768 758.367 115.68C758.367 117.411 758.549 119.326 758.914 121.422C759.37 123.427 760.008 125.296 760.828 127.027C761.74 128.759 762.924 130.217 764.383 131.402C765.841 132.496 767.664 133.043 769.852 133.043C771.31 133.043 772.677 132.77 773.953 132.223C775.229 131.676 776.277 130.764 777.098 129.488L777.781 129.352C778.146 129.352 778.465 129.397 778.738 129.488C779.103 129.579 779.467 129.625 779.832 129.625C780.379 129.625 781.062 129.306 781.883 128.668C782.794 127.939 783.751 127.118 784.754 126.207C785.848 125.296 786.941 124.43 788.035 123.609C789.129 122.698 790.177 122.06 791.18 121.695C791.818 120.419 792.41 119.143 792.957 117.867C793.595 116.591 794.507 115.589 795.691 114.859V110.895C796.603 109.892 797.56 108.98 798.562 108.16C799.656 107.34 800.477 106.292 801.023 105.016C801.479 105.198 801.889 105.335 802.254 105.426C802.71 105.517 803.165 105.562 803.621 105.562C804.077 105.562 804.533 105.517 804.988 105.426C805.535 105.335 806.036 105.198 806.492 105.016C807.221 106.018 807.768 107.158 808.133 108.434C808.589 109.618 809.135 110.758 809.773 111.852C808.953 113.492 807.996 115.452 806.902 117.73C805.809 120.009 804.624 122.288 803.348 124.566C802.072 126.845 800.704 129.033 799.246 131.129C797.879 133.134 796.512 134.684 795.145 135.777C794.871 136.051 794.279 136.37 793.367 136.734C792.365 137.464 791.453 138.147 790.633 138.785C789.812 139.514 789.038 140.335 788.309 141.246C785.665 142.066 783.113 143.16 780.652 144.527C778.283 145.895 775.913 147.216 773.543 148.492C772.449 148.219 771.264 148.082 769.988 148.082C768.895 148.082 767.801 148.128 766.707 148.219C765.613 148.401 764.428 148.492 763.152 148.492C762.788 148.036 762.241 147.717 761.512 147.535C760.874 147.444 760.646 146.988 760.828 146.168C757.729 145.986 755.223 145.12 753.309 143.57C751.395 142.112 749.754 140.289 748.387 138.102C747.111 135.914 746.062 133.544 745.242 130.992C744.422 128.44 743.556 125.979 742.645 123.609V123.199C742.645 122.743 742.827 122.47 743.191 122.379C743.556 122.288 743.738 122.014 743.738 121.559C743.738 121.376 743.693 121.24 743.602 121.148C743.328 120.146 743.1 119.28 742.918 118.551C742.736 117.822 742.645 116.956 742.645 115.953C742.645 114.495 742.736 113.082 742.918 111.715C743.1 110.257 743.191 108.798 743.191 107.34C743.191 105.882 743.009 104.605 742.645 103.512C743.009 103.056 743.328 102.464 743.602 101.734C743.784 100.914 743.921 100.094 744.012 99.2734C744.103 98.4531 744.148 97.6328 744.148 96.8125C744.24 95.9922 744.376 95.263 744.559 94.625C744.194 93.6224 743.875 92.7565 743.602 92.0273C743.328 91.207 743.191 90.25 743.191 89.1562V88.1992C744.103 86.6497 744.878 85.0547 745.516 83.4141C746.154 81.7734 746.837 80.0872 747.566 78.3555V77.9453C747.566 75.3021 747.475 72.6589 747.293 70.0156C747.111 67.3724 747.02 64.7292 747.02 62.0859V59.4883C747.02 58.5768 747.065 57.7109 747.156 56.8906C747.885 56.526 748.432 56.0247 748.797 55.3867C749.161 54.7487 749.708 54.2474 750.438 53.8828H754.949L755.77 52.5156C756.043 52.0599 756.225 51.5586 756.316 51.0117C757.319 50.7383 758.276 50.3737 759.188 49.918C760.19 49.3711 761.102 48.8242 761.922 48.2773C763.198 47.5482 764.337 46.9102 765.34 46.3633C766.434 45.7253 767.482 45.224 768.484 44.8594C769.578 44.4036 770.717 44.0391 771.902 43.7656C773.087 43.4922 774.454 43.2643 776.004 43.082C776.733 43.082 777.189 42.9453 777.371 42.6719C777.645 42.3984 778.009 42.0794 778.465 41.7148C779.559 41.8971 780.652 42.0794 781.746 42.2617C782.84 42.3529 783.934 42.3984 785.027 42.3984C787.215 42.3984 789.266 41.9883 791.18 41.168C793.914 41.168 796.603 41.1224 799.246 41.0312C801.98 40.9401 804.715 40.8945 807.449 40.8945C809.819 40.8945 812.189 40.9857 814.559 41.168C816.928 41.3503 819.253 41.6693 821.531 42.125C822.352 41.8516 823.263 41.7148 824.266 41.7148C825.359 41.7148 826.453 41.8516 827.547 42.125C828.732 42.3073 829.871 42.3073 830.965 42.125C831.056 43.1276 831.284 43.9935 831.648 44.7227C832.104 45.3607 832.332 46.1354 832.332 47.0469Z" fill="white"/>
<path d="M1000.63 110.211C1000.45 111.578 999.949 112.626 999.129 113.355C998.4 114.085 997.534 114.768 996.531 115.406C996.076 115.315 995.62 115.27 995.164 115.27C994.799 115.178 994.389 115.133 993.934 115.133C991.108 115.042 988.419 115.406 985.867 116.227C983.406 117.047 980.854 117.639 978.211 118.004C977.299 118.186 976.434 118.277 975.613 118.277C974.884 118.186 974.109 118.232 973.289 118.414C970.372 118.87 967.273 119.234 963.992 119.508C960.711 119.781 957.43 120.146 954.148 120.602C950.867 120.966 947.632 121.467 944.441 122.105C941.342 122.652 938.426 123.473 935.691 124.566C935.418 124.384 935.145 124.202 934.871 124.02C934.598 123.746 934.279 123.609 933.914 123.609C933.003 123.609 932.137 123.746 931.316 124.02C930.496 124.293 929.676 124.384 928.855 124.293C927.944 124.84 926.941 125.25 925.848 125.523C924.845 125.706 923.797 125.888 922.703 126.07C921.701 126.161 920.698 126.344 919.695 126.617C918.693 126.891 917.736 127.392 916.824 128.121C916.095 127.757 915.184 127.574 914.09 127.574C913.087 127.483 912.404 127.118 912.039 126.48C909.943 127.483 907.71 128.121 905.34 128.395C903.061 128.668 900.737 128.759 898.367 128.668C896.818 128.577 895.04 128.349 893.035 127.984C891.03 127.62 889.025 127.118 887.02 126.48C885.014 125.751 883.146 124.931 881.414 124.02C879.682 123.017 878.361 121.832 877.449 120.465C876.811 119.553 876.355 118.551 876.082 117.457C875.809 116.363 875.171 115.543 874.168 114.996C874.441 112.9 874.76 110.849 875.125 108.844C875.49 106.839 875.854 104.788 876.219 102.691C878.042 101.142 879.773 99.5013 881.414 97.7695C883.055 96.0378 884.604 94.2148 886.062 92.3008C887.794 91.4805 889.389 90.4779 890.848 89.293C892.397 88.1081 893.901 86.9232 895.359 85.7383C896.909 84.4622 898.413 83.2318 899.871 82.0469C901.421 80.862 903.061 79.8138 904.793 78.9023C905.066 78.2643 905.431 77.763 905.887 77.3984C906.434 76.9427 906.98 76.5326 907.527 76.168C908.074 75.7122 908.576 75.2565 909.031 74.8008C909.487 74.2539 909.806 73.6159 909.988 72.8867C913.178 70.9727 915.958 68.5573 918.328 65.6406C920.698 62.724 922.247 59.4427 922.977 55.7969C921.427 54.5208 919.65 53.7005 917.645 53.3359C915.73 52.8802 913.725 52.5612 911.629 52.3789C909.806 52.2878 907.892 52.2878 905.887 52.3789C903.973 52.4701 902.013 52.4245 900.008 52.2422C898.003 52.8802 895.906 53.2904 893.719 53.4727C891.622 53.6549 889.526 53.8372 887.43 54.0195C885.333 54.1107 883.237 54.3841 881.141 54.8398C879.135 55.2044 877.176 55.9336 875.262 57.0273C874.897 57.0273 874.533 56.9818 874.168 56.8906C873.895 56.7995 873.576 56.7539 873.211 56.7539C870.294 56.6628 867.56 57.2552 865.008 58.5312C862.456 59.7161 859.949 60.901 857.488 62.0859C857.306 62.4505 857.215 62.724 857.215 62.9062C857.215 63.4531 857.306 64 857.488 64.5469C857.762 65.0026 857.898 65.5039 857.898 66.0508C857.807 66.1419 857.762 66.2331 857.762 66.3242C857.762 66.4154 857.716 66.5065 857.625 66.5977C857.534 67.0534 857.397 67.4635 857.215 67.8281C857.124 68.1927 856.987 68.6029 856.805 69.0586C855.802 71.9753 855.255 74.8464 855.164 77.6719C855.073 80.0417 855.073 82.3659 855.164 84.6445C855.255 86.9232 855.255 89.2474 855.164 91.6172C854.982 94.5339 854.526 97.2682 853.797 99.8203C854.253 102.008 854.663 104.332 855.027 106.793C855.392 109.163 855.848 111.533 856.395 113.902C856.941 116.272 857.579 118.596 858.309 120.875C859.129 123.062 860.177 125.159 861.453 127.164C861.362 127.346 861.408 127.483 861.59 127.574C861.772 127.665 861.954 127.711 862.137 127.711H863.23C863.686 127.711 863.868 127.893 863.777 128.258C863.96 128.531 864.096 128.805 864.188 129.078C864.279 129.26 864.461 129.443 864.734 129.625C864.917 129.898 864.917 130.263 864.734 130.719C864.643 132.542 864.188 134.228 863.367 135.777C862.547 137.327 862.046 139.013 861.863 140.836C860.77 141.109 859.767 141.246 858.855 141.246C857.306 141.155 855.939 140.699 854.754 139.879C853.569 139.15 852.475 138.238 851.473 137.145C850.47 136.051 849.513 134.957 848.602 133.863C847.69 132.678 846.688 131.676 845.594 130.855C844.956 128.303 844.318 125.478 843.68 122.379C843.133 119.28 842.176 116.637 840.809 114.449C841.173 113.629 841.355 112.626 841.355 111.441C841.447 109.618 841.264 107.841 840.809 106.109C840.444 104.286 840.353 102.464 840.535 100.641C840.535 99.638 840.626 98.6354 840.809 97.6328C841.082 96.6302 841.264 95.6276 841.355 94.625C841.447 93.0755 841.264 91.5716 840.809 90.1133C840.444 88.6549 840.307 87.151 840.398 85.6016C840.49 84.8724 840.626 84.1888 840.809 83.5508C841.082 82.8216 841.447 82.1836 841.902 81.6367C841.447 80.543 841.31 79.4948 841.492 78.4922C841.583 76.9427 841.766 75.4844 842.039 74.1172C842.312 72.75 842.495 71.3828 842.586 70.0156C842.586 69.2865 842.54 68.6029 842.449 67.9648C842.358 67.2357 842.221 66.5521 842.039 65.9141L840.809 65.5039C840.262 65.5039 839.715 65.6406 839.168 65.9141C838.712 66.1875 838.302 66.5065 837.938 66.8711C837.573 67.2357 837.254 67.5547 836.98 67.8281C836.707 68.0104 836.434 68.1016 836.16 68.1016C835.978 68.1016 835.75 68.1016 835.477 68.1016C835.294 68.0104 835.112 67.9648 834.93 67.9648C834.747 67.9648 834.383 68.1471 833.836 68.5117C833.38 68.8763 832.788 69.2865 832.059 69.7422C831.421 70.1068 830.783 70.5169 830.145 70.9727C829.507 71.3372 829.005 71.5651 828.641 71.6562C827.638 71.474 826.818 71.1549 826.18 70.6992C825.633 70.1523 825.086 69.651 824.539 69.1953C824.083 68.6484 823.582 68.1927 823.035 67.8281C822.488 67.3724 821.805 67.1901 820.984 67.2812C820.711 66.7344 820.574 66.1419 820.574 65.5039C820.483 64.8659 820.483 64.2279 820.574 63.5898V61.4023C821.212 60.2174 822.078 59.2604 823.172 58.5312C824.174 57.7109 825.268 57.0273 826.453 56.4805L830.008 54.8398C831.193 54.293 832.286 53.6094 833.289 52.7891H834.52C836.16 52.8802 837.573 52.5612 838.758 51.832C840.034 51.1029 841.219 50.2826 842.312 49.3711C843.406 48.3685 844.5 47.3659 845.594 46.3633C846.779 45.3607 848.055 44.5859 849.422 44.0391C850.424 44.4948 851.473 44.9049 852.566 45.2695C853.66 45.543 854.799 45.7253 855.984 45.8164C857.169 45.8164 858.4 45.6341 859.676 45.2695C860.952 44.9049 861.954 44.2214 862.684 43.2188C863.139 43.401 863.504 43.5378 863.777 43.6289C864.142 43.6289 864.552 43.6289 865.008 43.6289C866.375 43.7201 867.742 43.5378 869.109 43.082C870.477 42.5352 871.798 41.8971 873.074 41.168C874.897 41.2591 876.674 41.168 878.406 40.8945C880.229 40.5299 882.007 40.1654 883.738 39.8008C885.561 39.4362 887.339 39.1172 889.07 38.8438C890.893 38.4792 892.716 38.3424 894.539 38.4336C897.547 38.5247 900.509 38.2513 903.426 37.6133C906.342 36.9753 909.305 36.7474 912.312 36.9297C914.409 37.0208 916.46 37.2031 918.465 37.4766C920.561 37.6589 922.658 37.7044 924.754 37.6133C925.939 38.1602 926.987 38.6615 927.898 39.1172C928.901 39.4818 930.132 39.5729 931.59 39.3906C934.507 41.8516 937.15 44.7227 939.52 48.0039V50.3281C939.428 52.4245 939.064 54.4753 938.426 56.4805C937.788 58.4857 937.013 60.4909 936.102 62.4961C935.281 64.4102 934.37 66.3242 933.367 68.2383C932.365 70.0612 931.408 71.8841 930.496 73.707C924.572 79.0846 918.647 84.4167 912.723 89.7031C906.798 94.9896 900.691 100.094 894.402 105.016C894.22 105.927 893.947 106.747 893.582 107.477C893.309 108.206 893.126 108.98 893.035 109.801C893.035 110.257 893.081 110.621 893.172 110.895C893.81 111.077 894.357 111.441 894.812 111.988C895.359 112.444 895.542 113.082 895.359 113.902H896.59C897.046 113.902 897.273 114.085 897.273 114.449L899.461 114.586C902.924 114.768 906.388 114.677 909.852 114.312C913.315 113.948 916.779 113.538 920.242 113.082C923.797 112.626 927.306 112.216 930.77 111.852C934.233 111.396 937.697 111.122 941.16 111.031C941.98 110.758 942.846 110.53 943.758 110.348C944.669 110.165 945.49 109.801 946.219 109.254H946.629C947.267 109.254 947.723 109.436 947.996 109.801C948.361 110.165 948.862 110.393 949.5 110.484C949.956 110.484 950.411 110.393 950.867 110.211C951.414 110.029 951.961 109.892 952.508 109.801C953.784 109.436 955.105 109.208 956.473 109.117C957.931 109.026 959.344 108.889 960.711 108.707C965.997 108.251 971.238 107.978 976.434 107.887C981.629 107.704 986.824 107.021 992.02 105.836C992.475 106.474 993.113 106.93 993.934 107.203C994.754 107.385 995.62 107.613 996.531 107.887C997.443 108.069 998.263 108.297 998.992 108.57C999.812 108.844 1000.36 109.391 1000.63 110.211Z" fill="white"/>
</svg>
